HIERARCHY
ROOT pelvis
{
  OFFSET 0 100 0
  CHANNELS 6 Xposition Yposition Zposition Zrotation Xrotation Yrotation
  JOINT pelvis_right_femur
  {
    OFFSET -10.78128 -3.44521 -0.5502486
    CHANNELS 3 Zrotation Xrotation Yrotation
    JOINT right_femur_tibia
    {
      OFFSET -0.8047443 -44.0398 -0.1307829
      CHANNELS 3 Zrotation Xrotation Yrotation
      JOINT right_tibia_foot
      {
        OFFSET 3.006224 -47.83518 -5
        CHANNELS 3 Zrotation Xrotation Yrotation
        End Site
        {
          OFFSET 0 -5 15
        }
      }
    }
  }
  JOINT pelvis_left_femur
  {
    OFFSET 10.78128 -3.44521 -0.5502486
    CHANNELS 3 Zrotation Xrotation Yrotation
    JOINT left_femur_tibia
    {
      OFFSET 0.8047443 -44.0398 -0.1307829
      CHANNELS 3 Zrotation Xrotation Yrotation
      JOINT left_tibia_foot
      {
        OFFSET -4.370144 -48.10324 -4.275266
        CHANNELS 3 Zrotation Xrotation Yrotation
        End Site
        {
          OFFSET 0 -5 15
        }
      }
    }
  }
  JOINT pelvis_spine1
  {
    OFFSET 0 6.468898 -3.129235
    CHANNELS 3 Zrotation Xrotation Yrotation
    JOINT spine1
    {
      OFFSET 0 23.15396 4.99043
      CHANNELS 3 Zrotation Xrotation Yrotation
      JOINT spine2
      {
        OFFSET 0 20.79997 -5.064912
        CHANNELS 3 Zrotation Xrotation Yrotation
        JOINT neck
        {
          OFFSET 0 14.38658 9.616178
          CHANNELS 3 Zrotation Xrotation Yrotation
          End Site
          {
            OFFSET 0 20 0
          }
        }
      }
      JOINT right_manubrium
      {
        OFFSET -5.722621 16.35077 3.967754
        CHANNELS 3 Zrotation Xrotation Yrotation
        JOINT right_clavicle
        {
          OFFSET -13.16364 1.694482 -4.693211
          CHANNELS 3 Zrotation Xrotation Yrotation
          JOINT right_humerus
          {
            OFFSET -28.5034 -0.3100689 -2.792744
            CHANNELS 3 Zrotation Xrotation Yrotation
            JOINT right_radius
            {
              OFFSET -25.15693 0.02248979 -1.271978
              CHANNELS 3 Zrotation Xrotation Yrotation
              End Site
              {
                OFFSET -15 0 0
              }
            }
          }
        }
      }
      JOINT left_manubrium
      {
        OFFSET 5.722621 16.35077 3.967754
        CHANNELS 3 Zrotation Xrotation Yrotation
        JOINT left_clavicle
        {
          OFFSET 13.16364 1.694482 -4.693211
          CHANNELS 3 Zrotation Xrotation Yrotation
          JOINT left_humerus
          {
            OFFSET 29.39168 -1.063119 -2.237045
            CHANNELS 3 Zrotation Xrotation Yrotation
            JOINT left_radius
            {
              OFFSET 24.59957 -0.9528479 0.9047498
              CHANNELS 3 Zrotation Xrotation Yrotation
              End Site
              {
                OFFSET 15 -0 -0
              }
            }
          }
        }
      }
    }
  }
}
MOTION
Frames: 9
Frame Time: 0.0416666666667
23.30703 102.0751 245.8833 1.389377 -8.711671 -8.273391 0.1353512 20.75466 7.633858 -0 10.52807 -0 5.965596 -13.63685 0.9202541 -0.4411013 -23.20741 -4.439039 -0 34.19327 -0 -8.280655 -6.028737 19.84985 -1.250565 -0.6536985 10.04604 -1.545396 10.40715 -2.301561 2.374518 21.67791 5.241192 1.910986 -14.77629 7.067998 1.81987 -21.04253 11.75757 80.89186 22.50664 -7.523682 -0 0 24.78647 -25.9649 14.43707 13.05399 4.784405 -15.2703 -3.18185 -93.0138 22.05438 23.8405 0 0 -12.77287 -3.729399 6.711422 16.21617
23.50032 101.5794 252.4955 1.433365 -8.613333 -8.719495 -0.5099589 21.70353 7.533253 -0 14.70327 -0 6.604088 -13.37009 0.9292122 -0.8782983 -23.53356 -4.989704 -0 30.60364 -0 -8.16568 -6.433993 19.72673 -1.401184 -0.7958027 10.02944 -1.816456 9.937332 -2.068027 2.453324 21.67101 5.208489 1.730246 -14.77271 7.27554 1.568867 -21.1774 11.47685 80.67223 22.05228 -6.599441 -0 0 25.59198 -26.10948 14.17882 13.27284 4.682132 -14.49514 -3.120092 -93.25642 22.2976 24.52325 0 0 -11.60183 -4.042067 6.674145 16.67668
23.72229 101.2525 259.2796 1.518387 -8.579857 -8.958291 -1.149482 21.76635 7.282212 -0 19.62386 -0 7.124145 -12.62824 0.6418677 -1.703566 -22.60218 -5.784871 -0 28.09543 -0 -8.003538 -6.894404 19.41353 -1.618288 -0.9952426 9.876924 -2.002123 9.534287 -1.977813 2.53533 21.73227 5.186862 1.555241 -14.74566 7.503958 1.460683 -21.0112 11.17924 80.78628 21.77052 -6.249481 -0 0 25.72991 -26.08274 13.9866 13.32308 4.541403 -13.90886 -3.125944 -93.1789 22.60881 24.66722 0 0 -10.69465 -4.240715 6.695124 17.03584
23.95248 101.182 266.1492 1.609797 -8.656937 -8.980345 -1.671593 20.73778 6.851803 -0 25.01329 -0 7.452895 -11.63785 0.04009669 -2.726298 -20.48933 -6.673664 -0 26.41859 -0 -7.793392 -7.48653 18.96549 -1.869126 -1.149445 9.550222 -2.100278 9.215791 -2.021182 2.600738 21.88195 5.183252 1.376454 -14.6688 7.745282 1.48925 -20.57457 10.89628 81.21672 21.67791 -6.44362 -0 0 25.21686 -25.87319 13.86403 13.20046 4.394219 -13.57698 -3.195846 -92.74126 22.98867 24.18514 0 0 -10.17225 -4.296308 6.789829 17.23416
24.17148 101.4043 272.9751 1.68229 -8.86034 -8.768498 -2.00476 18.50265 6.237242 -0 30.5219 -0 7.541886 -10.60413 -0.8570754 -3.763632 -17.33255 -7.518879 -0 25.26084 -0 -7.541962 -8.265405 18.43256 -2.121146 -1.180293 9.024608 -2.112514 8.984181 -2.187656 2.63499 22.12632 5.201741 1.186659 -14.52688 7.99203 1.6301 -19.91072 10.64713 81.93686 21.76828 -7.126585 -0 0 24.1164 -25.4813 13.80673 12.91377 4.272842 -13.53799 -3.322803 -91.92733 23.42219 23.0319 0 0 -10.1205 -4.189272 6.968471 17.22617
24.3646 101.9026 279.6293 1.731918 -9.152658 -8.312841 -2.154109 15.12816 5.482138 -0 35.62982 -0 7.379491 -9.659217 -1.974854 -4.691747 -13.35127 -8.240328 -0 24.35444 -0 -7.267482 -9.235972 17.84382 -2.352555 -1.069514 8.309213 -2.042979 8.819915 -2.471373 2.640692 22.4494 5.237257 0.9881065 -14.3225 8.23794 1.829516 -19.07027 10.42587 82.90139 22.00504 -8.217949 -0 0 22.55575 -24.9266 13.79689 12.48949 4.2059 -13.78459 -3.495725 -90.76676 23.87782 21.23457 0 0 -10.5619 -3.918893 7.232711 16.99379
24.52177 102.5946 286.0294 1.768362 -9.439926 -7.628763 -2.175639 10.83787 4.669651 -0 39.52822 -0 6.974069 -8.886391 -3.183393 -5.431097 -8.84736 -8.809406 -0 23.45859 -0 -7.000615 -10.35992 17.20671 -2.55099 -0.8535099 7.442063 -1.895818 8.68039 -2.875308 2.639042 22.81363 5.274042 0.7935426 -14.07355 8.47698 1.997743 -18.11032 10.20271 84.04131 22.32727 -9.612619 -0 0 20.72847 -24.24493 13.80267 11.9708 4.226061 -14.2729 -3.698372 -89.33032 24.31491 18.87706 0 0 -11.47809 -3.497716 7.579557 16.53527
24.63466 103.3343 292.1578 1.800372 -9.614643 -6.761373 -2.130803 5.926601 3.884306 -0 41.39623 -0 6.341526 -8.335332 -4.343837 -5.93864 -4.136365 -9.234592 -0 22.38964 -0 -6.774687 -11.57879 16.51866 -2.711487 -0.5920197 6.474667 -1.676741 8.517476 -3.401527 2.657806 23.17506 5.292262 0.6195139 -13.80436 8.702814 2.043125 -17.08561 9.944755 85.27755 22.67159 -11.19904 -0 0 18.83706 -23.47699 13.78997 11.404 4.362076 -14.94361 -3.911497 -87.70948 24.69455 16.07526 0 0 -12.82384 -2.944587 8.002338 15.85989
24.69326 103.9518 298.0492 1.828851 -9.616392 -5.773035 -2.057056 0.6940726 3.177699 -0 40.87774 -0 5.504874 -8.019467 -5.368826 -6.214042 0.5364864 -9.54411 -0 21.11292 -0 -6.612467 -12.83392 15.78569 -2.835107 -0.3338226 5.462321 -1.397574 8.302752 -4.030277 2.714942 23.50213 5.276752 0.4777959 -13.53814 8.907306 1.924942 -16.03688 9.642656 86.54163 22.99421 -12.88209 -0 0 17.01033 -22.65397 13.73788 10.81787 4.61947 -15.74005 -4.115013 -85.99833 24.98762 12.96587 0 0 -14.51918 -2.281356 8.489061 14.9921
